<svg width="56" height="67" viewBox="0 0 56 67" fill="none" xmlns="http://www.w3.org/2000/svg">
<path d="M39.4074 6.93402C39.4074 5.86959 39.299 5.01806 39.0821 4.3794C38.9194 3.71033 38.5398 3.1933 37.9433 2.82836C37.4011 2.433 36.5878 2.17451 35.5033 2.05286C34.4188 1.9008 33.009 1.79436 31.2738 1.73354V0H56V1.73354C54.2648 1.76395 52.855 1.85515 51.7705 2.00721C50.7403 2.15927 49.9269 2.433 49.3304 2.82836C48.7882 3.22372 48.4086 3.77116 48.1917 4.47065C48.0291 5.17013 47.9477 6.09768 47.9477 7.25335V35.2175C47.9477 39.0494 46.5108 41.969 43.6369 43.9762C40.763 45.9834 36.5607 46.987 31.0298 46.987C27.2883 46.987 24.306 46.5765 22.0828 45.7554C19.8054 44.9646 18.6667 43.9002 18.6667 42.562C18.6667 41.7713 19.0463 41.1631 19.8054 40.7373C20.5103 40.3419 21.5135 40.1443 22.8148 40.1443C23.8451 40.1443 24.6856 40.2811 25.3363 40.5548C25.9327 40.8589 26.6376 41.4368 27.451 42.2883C28.3728 43.2615 29.1591 43.9154 29.8098 44.2499C30.5147 44.6148 31.4094 44.7974 32.4938 44.7974C34.717 44.7974 36.4251 44.1283 37.618 42.7902C38.811 41.452 39.4074 39.5512 39.4074 37.0878V6.93402Z" fill="white"/>
<path d="M28 23.4935C31.9487 23.4935 35.6282 24.0626 39.0385 25.2007C42.4487 26.3389 45.4102 27.8992 47.9231 29.8818C50.4359 31.8644 52.4103 34.1958 53.8462 36.8759C55.2821 39.5561 56 42.4565 56 45.5772C56 48.5511 55.2596 51.3414 53.7789 53.9481C52.343 56.5548 50.3686 58.8311 47.8558 60.7769C45.343 62.6861 42.3814 64.2097 38.9712 65.3479C35.5609 66.4493 31.9039 67 28 67C24.0962 67 20.4391 66.4493 17.0289 65.3479C13.6186 64.2097 10.6571 62.6861 8.14425 60.7769C5.63143 58.8311 3.63463 56.5548 2.15386 53.9481C0.717964 51.3414 0 48.5511 0 45.5772C0 42.4565 0.717964 39.5561 2.15386 36.8759C3.58976 34.1958 5.56412 31.8644 8.07694 29.8818C10.5898 27.8992 13.5513 26.3389 16.9615 25.2007C20.3718 24.0626 24.0513 23.4935 28 23.4935ZM28 63.9711C30.9616 63.9711 33.609 63.5489 35.9423 62.7045C38.3205 61.8601 40.3397 60.6485 42 59.0697C43.7051 57.491 45.0064 55.5819 45.9039 53.3423C46.8013 51.066 47.25 48.5328 47.25 45.7425C47.25 42.8053 46.8013 40.1618 45.9039 37.8121C45.0064 35.4257 43.7276 33.4064 42.0673 31.7543C40.407 30.0654 38.3878 28.7804 36.0096 27.8993C33.6314 26.9814 30.9616 26.5225 28 26.5225C25.0385 26.5225 22.3686 26.9814 19.9904 27.8993C17.6122 28.7804 15.593 30.0654 13.9327 31.7543C12.2724 33.4064 10.9936 35.4257 10.0962 37.8121C9.19873 40.1618 8.75003 42.8053 8.75003 45.7425C8.75003 48.5328 9.19873 51.066 10.0962 53.3423C10.9936 55.5819 12.2724 57.491 13.9327 59.0697C15.593 60.6485 17.6122 61.8601 19.9904 62.7045C22.3686 63.5489 25.0385 63.9711 28 63.9711Z" fill="#643884"/>
</svg>
